<?xml version="1.0" encoding="UTF-8"?>
<svg xmlns="http://www.w3.org/2000/svg" width="190.419" height="120.051" viewBox="0 0 190.419 120.051">
  <g id="Group_168" data-name="Group 168" transform="translate(-43.164 -81.937)">
    <path id="Path_1" data-name="Path 1" d="M227.62,131.43h5.122l-4.543-2.366L138.313,82.239l-.581-.3-.58.3L47.684,129.065l-4.52,2.365H227.62ZM137.734,84.767,222.5,128.922H53.366Z" transform="translate(0)" fill="#007f3e"></path>
    <path id="Path_2" data-name="Path 2" d="M54.989,472.1v-.042a3.284,3.284,0,0,0,1.709-3.221c0-3.011-1.854-4.1-4.613-4.1H46.318v15.768h6.22c2.842,0,5.622-1.087,5.622-4.391C58.161,473.919,57.213,472.392,54.989,472.1Zm-4.634-4.224h.288c1.092,0,2.348.083,2.348,1.527,0,1.338-1.112,1.526-2.183,1.526h-.453Zm.515,9.494h-.515v-3.388h.412c1.318,0,3.316-.188,3.316,1.715C54.083,477.432,52.064,477.37,50.87,477.37Z" transform="translate(-2.299 -279.042)" fill="#007f3e"></path>
    <path id="Path_3" data-name="Path 3" d="M106.969,473.041c0,2.049-.144,4.287-2.739,4.287s-2.739-2.237-2.739-4.287v-8.3H97.454V473.6c0,2.029.082,4.037,1.627,5.563a8.423,8.423,0,0,0,10.3,0c1.545-1.526,1.627-3.534,1.627-5.563v-8.866h-4.037Z" transform="translate(-39.575 -279.042)" fill="#007f3e"></path>
    <rect id="Rectangle_1" data-name="Rectangle 1" width="4.036" height="15.768" transform="translate(73.985 185.696)" fill="#007f3e"></rect>
    <path id="Path_4" data-name="Path 4" d="M185.527,464.738H181.49v15.768h8.876v-3.472h-4.84Z" transform="translate(-100.833 -279.042)" fill="#007f3e"></path>
    <path id="Path_5" data-name="Path 5" d="M224.826,464.738H219.1v15.768h5.725a7.884,7.884,0,1,0,0-15.768Zm-.783,12.3h-.906v-8.825h.947a4.118,4.118,0,0,1,4.428,4.413C228.513,475.7,226.453,477.034,224.044,477.034Z" transform="translate(-128.249 -279.042)" fill="#007f3e"></path>
    <rect id="Rectangle_2" data-name="Rectangle 2" width="4.037" height="15.768" transform="translate(106.339 185.696)" fill="#007f3e"></rect>
    <path id="Path_6" data-name="Path 6" d="M312.329,474.379h-.041l-7.394-9.641h-4.037v15.768h4.037v-9.662h.041l7.393,9.662h4.037V464.738h-4.037Z" transform="translate(-187.845 -279.042)" fill="#007f3e"></path>
    <path id="Path_7" data-name="Path 7" d="M373.168,473.516h3.295a2.952,2.952,0,0,1-3.254,2.74c-2.657,0-4.1-2.489-4.1-4.935,0-2.405,1.38-4.978,4.037-4.978a3.517,3.517,0,0,1,3.357,2.509l3.83-1.631a7.209,7.209,0,0,0-7-4.413c-5,0-8.424,3.367-8.424,8.491a7.909,7.909,0,0,0,8.28,8.324,7.464,7.464,0,0,0,6.4-3.1c1.38-1.965,1.545-3.932,1.586-6.231h-8.011Z" transform="translate(-234.535 -277.636)" fill="#007f3e"></path>
    <path id="Path_8" data-name="Path 8" d="M462.892,469.763l-1.03-.313c-.7-.23-1.792-.586-1.792-1.506,0-.878.989-1.318,1.731-1.318a4.214,4.214,0,0,1,2.677,1.046l1.606-3.179a10.491,10.491,0,0,0-4.86-1.3,5.069,5.069,0,0,0-5.355,5.29c0,3.054,1.668,3.723,4.2,4.455.865.25,2.451.647,2.451,1.8,0,1.108-1.009,1.589-1.957,1.589a5.5,5.5,0,0,1-3.584-1.631l-1.73,3.3a9.485,9.485,0,0,0,5.458,1.8,6.748,6.748,0,0,0,4.407-1.484,5.4,5.4,0,0,0,1.607-4.245C466.723,471.52,465.054,470.412,462.892,469.763Z" transform="translate(-300.39 -277.919)" fill="#007f3e"></path>
    <path id="Path_9" data-name="Path 9" d="M513.852,473.041c0,2.049-.144,4.287-2.739,4.287s-2.74-2.237-2.74-4.287v-8.3h-4.036V473.6c0,2.029.082,4.037,1.627,5.563a8.423,8.423,0,0,0,10.3,0c1.544-1.526,1.627-3.534,1.627-5.563v-8.866h-4.037Z" transform="translate(-336.172 -279.042)" fill="#007f3e"></path>
    <path id="Path_10" data-name="Path 10" d="M569.933,464.738h-6.178v15.768h4.036v-5.228h2.286c3.521,0,5.5-1.631,5.5-5.354C575.576,466.306,573.269,464.738,569.933,464.738Zm-1.462,7.235h-.679v-3.931h.679c1.566,0,2.9.021,2.9,2.007C571.375,471.973,569.933,471.973,568.471,471.973Z" transform="translate(-379.484 -279.042)" fill="#007f3e"></path>
    <path id="Path_11" data-name="Path 11" d="M620.156,464.738h-6.179v15.768h4.037v-5.228H620.3c3.521,0,5.5-1.631,5.5-5.354C625.8,466.306,623.492,464.738,620.156,464.738Zm-1.462,7.235h-.679v-3.931h.679c1.565,0,2.9.021,2.9,2.007C621.6,471.973,620.156,471.973,618.693,471.973Z" transform="translate(-416.093 -279.042)" fill="#007f3e"></path>
    <path id="Path_12" data-name="Path 12" d="M668.237,464.738H664.2v15.768h8.878v-3.472h-4.84Z" transform="translate(-452.703 -279.042)" fill="#007f3e"></path>
    <path id="Path_13" data-name="Path 13" d="M699.189,464.738l-2.9,4.287-2.9-4.287h-4.84l5.725,8.2v7.57H698.3v-7.57l5.726-8.2Z" transform="translate(-470.447 -279.042)" fill="#007f3e"></path>
    <path id="Path_14" data-name="Path 14" d="M280.566,147.309c-33.034-17.209-59.313-30.9-66.61-34.7-7.288,3.813-33.424,17.491-66.3,34.7Z" transform="translate(-76.168 -22.359)" fill="#007f3e"></path>
    <path id="Path_15" data-name="Path 15" d="M170.8,327.619V286.273H155.868V300.2h-9.5V286.273H131.44v41.346h14.928V313.253h9.5v14.366Z" transform="translate(-64.349 -148.951)" fill="#007f3e"></path>
    <path id="Path_16" data-name="Path 16" d="M321.914,286.273H302.293v41.346h14.928V315.172h7.917c8.651,0,14.08-5.264,14.08-13.709C339.217,291.208,331.866,286.273,321.914,286.273Zm-3.167,18.48h-1.527v-7.185h1.47c2.545,0,5.711.166,5.711,3.4C324.4,304.314,321.462,304.753,318.747,304.753Z" transform="translate(-188.891 -148.95)" fill="#007f3e"></path>
    <path id="Path_17" data-name="Path 17" d="M482.7,286.273,477.891,302.5a45,45,0,0,0-1.075,5.483h-.395l-5.882-21.715H454.594l-6.9,41.346h14.985l1.81-17.657c.169-1.646.282-3.345.4-4.991h.509a27.55,27.55,0,0,0,.961,5.155l5.542,17.493h9.047l6.164-18.534a33.752,33.752,0,0,0,1.017-4.113h.283l2.092,22.647h14.985l-7.011-41.346Z" transform="translate(-294.883 -148.95)" fill="#007f3e"></path>
  </g>
</svg>
