<?xml version="1.0" encoding="UTF-8"?>
<svg id="Layer_1" xmlns="http://www.w3.org/2000/svg" version="1.1" xmlns:xlink="http://www.w3.org/1999/xlink" viewBox="0 0 610 121.1">
  <!-- Generator: Adobe Illustrator 29.6.1, SVG Export Plug-In . SVG Version: 2.1.1 Build 9)  -->
  <defs>
    <style>
      .st0 {
        fill: #00467f;
      }

      .st1 {
        fill: url(#linear-gradient1);
      }

      .st2 {
        fill: #b32317;
      }

      .st3 {
        fill: url(#linear-gradient);
      }
    </style>
    <linearGradient id="linear-gradient" x1="9.3" y1="118.9" x2="75.8" y2="105.2" gradientTransform="translate(0 180) scale(1 -1)" gradientUnits="userSpaceOnUse">
      <stop offset="0" stop-color="#fff"/>
      <stop offset="1" stop-color="#6b89b4"/>
    </linearGradient>
    <linearGradient id="linear-gradient1" x1="81.2" y1="64.5" x2="103.9" y2="150.8" gradientTransform="translate(0 180) scale(1 -1)" gradientUnits="userSpaceOnUse">
      <stop offset="0" stop-color="#fff"/>
      <stop offset="1" stop-color="#6b89b4"/>
    </linearGradient>
  </defs>
  <g>
    <rect class="st0" y="2.8" width="123" height="115.9"/>
    <g>
      <path class="st3" d="M57.7,61c0-27.5-20.6-50-46.8-52.2,22.3,4.5,39,24.7,39,48.9S31,104.5,6.7,107.2h0c-1.7,0-3.1,1.4-3.1,3.2,0,1.7,1.4,3.1,3.2,3.1,0,0-.1,0,0,0,28.1-.2,51-23.6,51-52.5Z"/>
      <path class="st1" d="M66.3,60.5c0,27.5,20.6,50,46.8,52.2-22.3-4.5-39.1-24.7-39.1-48.8s19-46.8,43.3-49.5h0c1.7,0,3.1-1.4,3.1-3.1,0-1.7-1.5-3.1-3.2-3.1h0c-28.1.1-51,23.6-51,52.4Z"/>
    </g>
    <g>
      <path class="st2" d="M482.2,85.4c-11.9-17.6-54.9-83.5-55.4-84.2l-.4-.7h-28.5l5,6.1v111.3h23.2V41.8l51.4,76.6h27.9V.5h-23.2v84.9Z"/>
      <path class="st2" d="M258.5,46.6h-55.3V.5h-23.1v117.8h23.2v-50.8h43l.4-.9c2.6-5.7,6.8-10.5,11.9-14v65.7h23.2V.5h-23.2v46.1Z"/>
      <path class="st2" d="M520.3.5l-10.8,17.8h0l-.8,1.4.3.7c.3.8.9.9,1.6,1h.7c6,0,40,0,51,0-4.2,4.4-9.5,7.5-15.4,9.1l-1.1.3v87.6h23.2V21.4h27.6l13.4-20.9h-89.7Z"/>
      <path class="st2" d="M392.9.5h-30.3c0,0,7.1,10.9,7.1,10.9v60.5c0,8.5-2.5,28.3-25.8,28.3s-27.6-15.2-27.6-28.3V.5h-30.3c0,0,7.1,10.9,7.1,10.9v62.9c0,27.1,21.4,46.8,50.8,46.8s20.9-3.7,27.3-9.3l1.6,6.2h23.7l-3.8-10.5V.5Z"/>
    </g>
    <rect class="st0" x="150.4" width="2.2" height="121.6"/>
  </g>
  <path class="st0" d="M136.2,12.2c-2.2,2.2-5.6,2.2-7.8,0,0,0,0,0,0,0-1-1-1.6-2.4-1.6-3.9,0-1.5.6-2.9,1.6-3.9,2.2-2.1,5.6-2.1,7.8,0,1.1,1,1.6,2.4,1.6,3.9,0,1.5-.6,2.9-1.6,3.9ZM128.9,5c-.9.9-1.4,2.1-1.4,3.4,0,1.3.5,2.5,1.4,3.4,1.8,1.9,4.8,1.9,6.7,0,0,0,0,0,0,0,.9-.9,1.4-2.1,1.4-3.4,0-1.3-.5-2.5-1.4-3.3-1.8-1.9-4.8-1.9-6.7,0,0,0,0,0,0,0ZM132.2,5.3c.6,0,1.1,0,1.6.2.6.2,1,.8.9,1.5,0,.5-.2.9-.6,1.2-.3.2-.6.3-.9.3.4,0,.8.3,1,.6.2.3.3.6.3.9v.9c0,.1,0,.2,0,.3h0c0,0-1,0-1,0h0v-.8c0-.5-.1-1.1-.6-1.4-.3-.1-.7-.2-1-.1h-.8v2.4h-1.1v-6.1h2.1ZM133.3,6.3c-.4-.2-.9-.3-1.3-.3h-.9v2.2h1c.3,0,.7,0,1-.1.4-.1.7-.6.6-1,0-.3-.1-.6-.4-.8h0Z"/>
</svg>