<?xml version="1.0" encoding="iso-8859-1"?>
<!-- Generator: Adobe Illustrator 30.0.0, SVG Export Plug-In . SVG Version: 9.03 Build 0)  -->
<svg version="1.1" xmlns="http://www.w3.org/2000/svg" xmlns:xlink="http://www.w3.org/1999/xlink" x="0px" y="0px"
	 viewBox="0 0 640.63 181.42" style="enable-background:new 0 0 640.63 181.42;" xml:space="preserve">
<g id="Layer_1">
	<path style="fill:#186F4E;" d="M326.93,93.47v36.97h-14.34V96.64c0-6.65-4.2-8.49-8.4-8.49c-2.45,0-4.81,0.61-6.45,1.22v41.08
		h-14.34V80.25c5.53-2.36,14.04-4.91,22.12-4.91C320.27,75.34,326.93,82.71,326.93,93.47z M541.54,97.97l-7.79-2.66
		c-3.17-1.12-4.29-2.46-4.29-3.99c0-2.16,2.16-3.69,6.14-3.69c3.9,0,9.11,1.43,13,3.69l6.26-11.17c-3.28-1.95-11.07-4.81-19.46-4.81
		c-11.79,0-20.91,6.96-20.91,17c0,9.94,7.06,14.14,13.53,16.29l6.86,2.26c3.58,1.23,5.32,2.26,5.32,4.51c0,1.95-1.83,3.79-6.66,3.79
		c-5.02,0-10.75-2.05-14.01-4.2l-6.16,11.38c4,2.45,11.37,5.12,20.37,5.12c12,0,21.52-6.77,21.52-17.52
		C555.28,104.94,549.65,100.75,541.54,97.97z M223.66,119.08c-2.86,0-4.09-1.44-4.09-4.81V56.59h-14.34v61.78
		c0,8.91,5.53,13.11,13.94,13.11c4.2,0,7.78-0.72,10.97-1.84l-1.55-11.38C226.64,118.77,225,119.08,223.66,119.08z M364.84,56.59
		h14.34v70.16c-5.74,2.36-12.7,4.72-21.93,4.72c-14.85,0-22.03-8.92-22.03-19.68V93.88c0-10.75,7.18-18.54,19.57-18.54
		c3.1,0,6.47,0.43,10.04,1.55V56.59z M364.84,88.86c-1.65-0.61-4.52-1.23-6.87-1.23c-4.2,0-8.4,2.46-8.4,9.11v13.01
		c0,7.16,4.71,9.32,9.44,9.32c2.05,0,4.3-0.41,5.84-1.03V88.86z M275.61,97.05v11.07h-28.48v0.92c0,6.15,3.69,10.04,9.93,10.04
		c5.23,0,9.01-1.44,13.42-3.79l3.99,11.37c-4.6,2.56-10.24,4.82-19.05,4.82c-11.57,0-22.64-6.25-22.64-22.13V98.08
		c0-13.93,8.4-22.74,21.72-22.74C268.44,75.34,275.61,84.66,275.61,97.05z M261.77,96.43c0-5.11-2.35-8.7-7.16-8.7
		c-5.03,0-7.37,3.59-7.37,8.7v0.93h14.54V96.43z M406.94,119.08c-2.86,0-4.1-1.44-4.1-4.81V56.59h-14.33v61.78
		c0,8.91,5.51,13.11,13.91,13.11c4.22,0,7.79-0.72,10.98-1.84l-1.55-11.38C409.91,118.77,408.28,119.08,406.94,119.08z
		 M507.63,92.44v34.32c-5.74,2.36-13.4,4.72-21.61,4.72c-14.03,0-21.72-6.77-21.72-17.82c0-9.33,6.86-16.29,19.06-16.29h9.94v-2.25
		c0-4.91-3.7-6.86-8.82-6.86c-4.7,0-10.66,1.74-15.78,4.4l-1.43-12.9c4-1.75,10.46-4.4,20.39-4.4
		C496.07,75.34,507.63,79.02,507.63,92.44z M493.31,108.12h-7.58c-4.42,0-6.97,2.36-6.97,5.53c0,3.79,3.38,5.94,8.1,5.94
		c2.36,0,4.49-0.41,6.45-1.03V108.12z M458.87,97.05v11.07h-28.46v0.92c0,6.15,3.67,10.04,9.92,10.04c5.23,0,9.02-1.44,13.42-3.79
		l4,11.37c-4.61,2.56-10.24,4.82-19.06,4.82c-11.59,0-22.65-6.25-22.65-22.13V98.08c0-13.93,8.4-22.74,21.73-22.74
		C451.7,75.34,458.87,84.66,458.87,97.05z M445.05,96.43c0-5.11-2.36-8.7-7.18-8.7c-5.03,0-7.38,3.59-7.38,8.7v0.93h14.56V96.43z
		 M603.63,97.05v11.07h-28.47v0.92c0,6.15,3.68,10.04,9.93,10.04c5.23,0,9.02-1.44,13.43-3.79l4,11.37
		c-4.62,2.56-10.25,4.82-19.05,4.82c-11.59,0-22.66-6.25-22.66-22.13V98.08c0-13.93,8.4-22.74,21.73-22.74
		C596.46,75.34,603.63,84.66,603.63,97.05z M589.8,96.43c0-5.11-2.35-8.7-7.16-8.7c-5.03,0-7.38,3.59-7.38,8.7v0.93h14.55V96.43z"/>
	<g>
		
			<linearGradient id="SVGID_1_" gradientUnits="userSpaceOnUse" x1="71.338" y1="102.9499" x2="140.9985" y2="206.4468" gradientTransform="matrix(1 0 0 -1 0 236.9684)">
			<stop  offset="0.1056" style="stop-color:#186F4E"/>
			<stop  offset="0.4772" style="stop-color:#39A55A"/>
			<stop  offset="1" style="stop-color:#B4F384"/>
		</linearGradient>
		<path style="fill:url(#SVGID_1_);" d="M72.1,64.93c-2.5-0.35-4.9,0.56-6.54,2.24L44.5,88.76c-0.99,1.01-2.44,1.55-3.95,1.32
			c-0.79-0.12-1.49-0.44-2.09-0.9l67.22,51.9c6.76,5.22,16.46,3.97,21.69-2.79c0.16-0.22,0.33-0.44,0.48-0.66l39.42-57.04
			c1.01-1.46,2.72-2.14,4.36-1.92L72.1,64.93L72.1,64.93z"/>
		
			<linearGradient id="SVGID_00000119116666460926055920000005935782241307989154_" gradientUnits="userSpaceOnUse" x1="134.9224" y1="166.7447" x2="182.6555" y2="113.9663" gradientTransform="matrix(1 0 0 -1 0 236.9684)">
			<stop  offset="0" style="stop-color:#186F4E"/>
			<stop  offset="0.5337" style="stop-color:#39A55A"/>
			<stop  offset="1" style="stop-color:#B4F384"/>
		</linearGradient>
		<path style="fill:url(#SVGID_00000119116666460926055920000005935782241307989154_);" d="M175.47,105.61l-31.37,8.5l23.16-33.52
			c1.43-2.07,4.26-2.58,6.33-1.15c0.73,0.51,1.26,1.18,1.59,1.93l7.92,18.33c0.59,1.39,1.68,2.45,2.99,3.04L175.47,105.61
			L175.47,105.61z"/>
		
			<linearGradient id="SVGID_00000170977342520977282500000005374776119250283675_" gradientUnits="userSpaceOnUse" x1="13.8014" y1="218.9904" x2="86.6733" y2="136.1299" gradientTransform="matrix(1 0 0 -1 0 236.9684)">
			<stop  offset="0" style="stop-color:#186F4E"/>
			<stop  offset="0.5144" style="stop-color:#39A55A"/>
			<stop  offset="1" style="stop-color:#B4F384"/>
		</linearGradient>
		<path style="fill:url(#SVGID_00000170977342520977282500000005374776119250283675_);" d="M43.45,41.47
			c0.23-1.53-0.14-3.09-1.03-4.34l53.65,31.11L72.1,64.93c-2.5-0.35-4.9,0.56-6.54,2.24L44.5,88.76c-0.99,1.01-2.44,1.55-3.95,1.32
			c-2.48-0.38-4.18-2.7-3.8-5.19L43.45,41.47z"/>
	</g>
</g>
<g id="Guides">
</g>
</svg>
